<?xml version="1.0" encoding="UTF-8" standalone="no"?>
<svg
   id="svg"
   version="1.1"
   style="display:block"
   viewBox="0 0 167.81916 223.93616"
   sodipodi:docname="export-2023-12-26 000151.svg"
   width="167.81915"
   height="223.93616"
   inkscape:version="1.3.2 (091e20e, 2023-11-25)"
   xmlns:inkscape="http://www.inkscape.org/namespaces/inkscape"
   xmlns:sodipodi="http://sodipodi.sourceforge.net/DTD/sodipodi-0.dtd"
   xmlns="http://www.w3.org/2000/svg"
   xmlns:svg="http://www.w3.org/2000/svg">
  <defs
     id="defs9" />
  <sodipodi:namedview
     id="namedview9"
     pagecolor="#ffffff"
     bordercolor="#999999"
     borderopacity="1"
     inkscape:showpageshadow="2"
     inkscape:pageopacity="0"
     inkscape:pagecheckerboard="0"
     inkscape:deskcolor="#d1d1d1"
     inkscape:zoom="3.76"
     inkscape:cx="82.712766"
     inkscape:cy="112.5"
     inkscape:window-width="1920"
     inkscape:window-height="1052"
     inkscape:window-x="0"
     inkscape:window-y="0"
     inkscape:window-maximized="1"
     inkscape:current-layer="svg" />
  <path
     d="m 62.542553,0 -2,1 -2,9 -40,1 -9.9999998,5 -5,6 -3.00000001,7 v 176 l 4.00000001,10 7.9999998,7 7,2 v 1 H 147.54255 v -1 l 10,-3 7,-8 3,-7 V 29 l -5,-10 -6,-5 -9,-3 -38,-1 -2,-9 -2,-1 z m -42,25 h 34 l 1,8 1,1 h 54.999997 l 1,-1 1,-8 h 34 l 5,4 1,2 v 173 l -4,5 -2,1 H 20.542553 l -5,-4 -1,-2 V 31 l 4,-5 z"
     style="fill:#030303"
     id="path18" />
  <path
     d="m 50.542553,154 -4,4 v 32 l 3,4 h 34 l 3,-3 v -33 l -4,-4 z"
     id="path14" />
  <path
     d="m 118.54255,103 -3,2 -8,8 -11.999997,11 -4,2 -11,-7 h -6 l -4,4 v 7 l 3,3 16,11 6,1 8.999997,-7 11,-11 8,-7 6,-7 v -5 l -5,-5 z"
     style="fill:#040404"
     id="path13" />
  <path
     d="m 118.54255,51 -7,6 -15.999997,15 -4,2 -11,-7 h -7 l -3,3 v 8 l 3,3 16,11 h 8 l 2.999997,-3 8,-7 15,-15 5,-5 1,-6 -5,-5 z"
     style="fill:#020202"
     id="path12" />
  <path
     d="m 50.542553,102 -4,4 v 32 l 4,4 h 22 v -1 l -6,-5 -3,-5 v -10 l 3,-5 7,-4 h 8 l 5,2 v -8 l -4,-4 z"
     style="fill:#010101"
     id="path11" />
  <path
     d="m 49.542553,50 -3,4 v 32 l 4,4 h 22 l -5,-5 -4,-6 V 69 l 3,-5 6,-4 h 10 l 4,1 v -8 l -3,-3 z"
     style="fill:#010101"
     id="path10" />
</svg>
